ply
format ascii 1.0
element vertex 1024
property float x
property float y
property float z
property uchar red
property uchar green
property uchar blue
end_header
-0.23143533138131853 -0.01113895730691534 -0.20442113196141787 206 212 216
0.6322165480723176 -0.16394358056879 -0.22251301789748926 220 30 38
0.09394992409267833 -0.21914430620707326 0.06409784364474817 220 30 38
-0.023791218823835784 -0.16233938956933625 -0.05933689395212591 206 212 216
0.14072423994757396 0.03145665836597181 0.6419095974352491 206 212 216
0.5613933669232054 0.033348308829179774 -0.11640352819349399 220 30 38
-0.1863068032856646 -0.009119411522315553 -0.22756877883055934 206 212 216
-0.5454790809143769 0.5894622822496368 -0.13607287978827767 206 212 216
0.24229334981554626 -0.05113218454316718 0.45871329498696367 206 212 216
-0.07681943763892939 0.1879727111690394 -0.0626081889081621 206 212 216
0.5421591086440833 0.030538240205992412 0.00969502067499517 220 30 38
0.039654388054997144 0.07563270783462668 0.1623527504894052 212 133 139
0.025544179281726222 -0.17429709827191986 -0.07049747671234942 206 212 216
-0.01287251455348277 -0.1732118125083955 0.015618168672401114 211 143 148
-0.5475505891209633 0.30475984249539373 -0.16576369771712965 206 212 216
0.5092057129737665 -0.029571275617809846 0.1079938544579506 206 212 216
0.09987874759281909 -0.21219099392708535 0.46118314264640775 206 212 216
-0.5454216218043133 0.5435060211026833 0.017404704056569357 206 212 216
0.17294859335651624 -0.20095986878433048 -0.1378570179384388 220 30 38
0.038405892937803505 -0.15647198890417527 -0.1215547612526474 220 30 38
0.1877888390476961 0.06301176811537698 0.47269254810047934 206 212 216
-0.21602396657411002 0.0186121984617267 -0.23747961104567872 206 212 216
-0.6271874851518079 0.7099450357151628 -0.0827995973472202 206 212 216
0.023735310691850572 -0.1169337062045881 -0.3288529177387661 206 212 216
-0.64340591501611 0.5498283709611407 -0.1888883371002913 206 212 216
0.5679463876903205 0.03021119192204591 -0.03242884560869251 220 30 38
0.5973114500161901 -0.22608908008714765 -0.21273997727748342 220 30 38
-0.006057688172397195 -0.14424264583505927 -0.3222429147006752 206 212 216
-0.007465025188374176 0.033627855744323074 0.2714944972049126 206 212 216
-0.10279110439987778 0.1026858605476196 0.028206875186916305 206 212 216
0.25852136116526614 -0.08966495516847413 0.2992478732169193 206 212 216
0.0962684945515609 -0.06032063534291785 -0.25678357723892875 206 212 216
-0.6205235992968109 0.5577713776687976 0.045518918734902734 206 211 215
-0.08499052244270491 0.20439339531261874 -0.10210892798020645 206 212 216
0.13424590410256437 0.11573739341364107 0.08584028297559616 206 212 216
-0.15691693042601487 -0.476274688012394 -0.19942007341243578 206 212 216
0.0877494513247837 -0.20618048193073907 -0.2543530986066599 206 212 216
-0.7843402969515655 0.5504989259281688 -0.03678739328948968 220 30 38
0.1506384249375285 -0.21527270064211046 0.6063068241889825 206 212 216
-0.014690966491428866 -0.1249241882039107 0.4094976002562796 220 30 38
0.06896681926656585 -0.0674810075461133 -0.17084227242030017 220 30 38
0.6315763915971281 -0.07951119579002193 -0.22529084400267868 220 30 38
0.06417880348121938 0.09329826237327231 0.3425172951170984 206 212 216
0.0016080879451475854 0.15951452228180013 -0.09531965579698587 206 212 216
0.29697557255088036 -0.1903584692617225 -0.21576206420532898 206 212 216
0.4524623979856672 -0.34369780516154785 0.12393287896871358 220 30 38
-0.1487993410073867 0.1809323161506668 -0.011934081827856246 206 212 216
-0.3709520111042615 0.22755118991359458 -0.2651612525774349 206 212 216
-0.14301507425691573 -0.09803060522123824 -0.0480293963239319 206 212 216
-0.7488732440306254 0.5715494642922049 -0.1373588850052658 220 30 38
-0.413375222438494 0.4491823917644438 -0.09011813111530535 206 212 216
0.2918442773260799 -0.041888316100697 -0.22480908751192266 206 212 216
0.37122895528199296 -0.3465078775100406 0.11423950027879068 220 30 38
0.5882702232847559 -0.26652932627288445 0.08738973433790816 220 30 38
-0.7694046834428527 0.525624912944581 -0.07187289670888537 206 212 216
-0.3622412934654647 0.18765358660961998 -0.2525360734606714 206 212 216
0.18664362057134093 -0.05196290528937541 0.6985946188448814 206 212 216
0.07729915763869016 -0.2461414303272656 0.643657749135513 206 212 216
-0.49678942910471574 0.4787904334079215 0.009297475643508114 206 212 216
-0.015591418434923619 -0.14803447026016722 0.29253126684029235 206 212 216
-0.3939420924573729 0.23594911601210497 -0.003711917965130519 220 30 38
-0.013295581652075991 -0.20355372440901034 0.5842825804079356 220 30 38
-0.5728293788850922 0.6509208205561063 -0.09765539246302436 206 212 216
0.10509447313857911 0.05278613642037548 0.6264151881206795 206 212 216
0.4188305198984898 -0.39159444376598007 -0.042843842026382764 220 30 38
-0.5415915310424203 0.25486804954328746 -0.05698757482269972 206 212 216
-0.041887979321986936 -0.004657042374769219 -0.1977294106246784 209 172 177
0.15211267728559366 0.11060448140630902 0.2266413585836064 206 212 216
-0.2724950809492604 0.29427051505960844 -0.06986047184550488 206 212 216
0.37018324716274476 -0.3736408262641099 -0.02303401102865937 220 30 38
-0.47558823939142064 0.2756311433447908 0.0049085900070846376 207 204 209
-0.625963737238203 0.6035278432380198 0.039485611594982865 206 212 216
0.3275596442019213 -0.26168389608113884 -0.16821436750451677 220 30 38
0.196715475385876 -0.15653593004558677 0.2741886380502169 220 31 39
0.12720005523712657 -0.2020372419992439 0.26558172232031607 206 212 216
0.26284718576367233 0.017335061334177525 -0.175748439990837 206 212 216
0.03463806692990443 -0.25422023186635656 -0.2954014338389408 206 212 216
-0.20163355895725563 -0.036787683864416616 -0.19061371973411925 206 212 216
-0.42519034135264444 0.35931318456606504 -0.2277646702882605 206 212 216
-0.042252791026493236 -0.13942886583775743 -0.09033287261819076 206 212 216
-0.13158147131656134 -0.2793415157193413 -0.3189755238646692 206 212 216
0.2080450678002336 -0.12900347954338362 0.1790685086209199 220 30 38
0.08134278290452793 -0.17968581209795167 -0.22208836288748104 208 187 191
0.45007796412780093 -0.0717600572102639 -0.27400408444595775 220 30 38
-0.3782386190053054 0.3475948341842675 -0.22786966429487562 206 212 216
0.13188422440991263 -0.010021386184381266 0.7279390578802096 206 212 216
-0.6348261493117631 0.35298290725777526 -0.10105521790501837 206 212 216
-0.1941354282171681 -0.5457322020144352 -0.2844215879941636 206 212 216
0.5852839588933711 0.009024835443417308 -0.1523495734286038 220 30 38
0.2559261942330952 -0.1795018714198851 -0.19615946263220757 220 30 38
-0.11318377506247138 -0.11656645815036824 -0.07487439014863241 206 212 216
-0.10807964476444633 -0.4242116976819364 -0.29058157414327124 206 212 216
0.5561973705946974 -0.30783199555354834 0.0833552807738972 220 30 38
0.11005236284890607 -0.16982682123239431 -0.34817932517157935 206 210 215
0.2503334975860934 -0.10764172171792827 -0.22881832075856262 207 195 199
-0.6804615573576044 0.4021804224982421 -0.09733289277693753 206 212 216
-0.2698879334350119 0.31354879154701054 -0.18669007910371507 206 212 216
0.6086835854179002 -0.1235593480746323 0.10657690475712336 220 35 43
-0.23709025552926052 -0.043780573788680666 -0.11695434439524317 206 212 216
-0.7168706655011116 0.43506139823211987 -0.040441861980212636 206 212 216
-0.03304395908105028 -0.16670614782317414 0.5579397242196833 220 30 38
-0.1311224689910198 -0.06406434372383614 -0.18286197020428016 206 212 216
0.1529064653543401 -0.19652124193924866 0.3919788301999165 206 212 216
0.40089263808651254 0.045936976227988556 -0.03351847880358643 220 30 38
-0.11953001157897643 -0.1026769029396087 -0.11500177028797533 206 212 216
0.18546530648205753 -0.1665940757363515 0.1919797017829531 220 30 38
0.16812290728324428 0.09677886733696098 0.10810641083447164 220 30 38
-0.48621880060448364 0.4869087976900671 -0.17052936167024185 206 212 216
0.30929685615658664 0.04869101253306996 -0.048428540442750044 215 94 100
-0.03881943783614782 0.03970232750860773 -0.1918806513876008 206 212 216
-0.1853337237199563 -0.568754171981534 -0.2532894792191813 206 212 216
-0.27963559727482107 0.09304307895526436 -0.24874670773710927 206 212 216
0.33381407429282944 -0.366065700912586 0.04675624166128461 220 30 38
0.30508517491479015 -0.1204380711659418 0.13224127107790423 220 30 38
0.49280611405859487 -0.0523216223942925 -0.27561875100411865 220 30 38
0.2964670534663292 -0.34488725046328395 -0.025592453900469405 220 30 38
-0.704146274051671 0.44775360304314316 -7.504898708725923e-07 206 212 216
-0.20184111807138308 -0.4352436679994839 -0.22374739038201621 206 212 216
-0.005763126413950522 0.036302107184244245 0.22509990172662353 206 212 216
-0.18016010902612564 -0.4437451426861249 -0.3472198057174265 206 212 216
0.14304737018023234 -0.21335668668176713 -0.09927906680957564 220 30 38
-0.4214512672516094 0.18779730889088633 -0.1968663318760057 206 212 216
0.4846046903678667 -0.39690273569963297 0.020501187195353994 220 30 38
-0.47725744442023316 0.3204454344816738 0.009697418840328638 206 209 213
-0.01288208765696344 -0.26122103433923155 -0.2822791797757301 206 212 216
0.6161330040649385 -0.2347744656494123 -0.1692952425064802 220 30 38
-0.3159752061213012 0.23305134997514645 -0.03064790563319358 206 212 216
0.5948711663801812 -0.2856401130307444 -0.1099646954866531 220 30 38
-0.2446083688073655 -0.552429108976253 -0.1700264603461922 206 212 216
0.5347160081149566 -0.04260697221069333 -0.2627652553716928 220 30 38
0.03583307038725608 0.08272913889641062 0.11496672459114349 220 30 38
-0.21400993237880866 0.2259305628668379 -0.224513000240926 206 212 216
-0.000148889833006041 -0.14737184274297147 -0.09910744199107015 206 212 216
0.06440391623426148 0.11825207884854715 0.04468154086799407 206 212 216
0.2687176411792387 -0.06608389137108862 0.3415250227781116 206 212 216
0.27379064282557214 -0.03855996064227208 0.3104715626501509 206 212 216
0.32434658321946613 -0.11540138379637829 -0.23999440078913523 220 30 38
-0.6591956665406018 0.7158843049715676 -0.004913307527216771 206 212 216
-0.626927309824601 0.6890863058741397 -0.0029743054059152563 206 212 216
0.21563874517251191 -0.07664509484872863 -0.2375194420107202 206 212 216
-0.43185273708549254 0.2556500358446142 0.006327117840400244 220 35 43
-0.6599220712857726 0.5431467228501281 0.047031657212769945 212 128 133
-0.024411480305684158 0.14079535452590614 -0.02224611639301201 206 212 216
0.4049526248935458 -0.14111344892714708 -0.27225420420400104 220 30 38
-0.2624856026478804 0.01973768772082976 -0.06292511553741185 210 156 161
0.44993825027511525 0.04632797310395731 -0.03563468694933601 220 30 38
0.19970545018141164 0.007348782372004046 0.5642939030872423 220 30 38
0.23040616859427251 0.03484896241641898 0.07224896081172776 206 212 216
-0.02512512960526001 -0.02923570010986597 0.4438822582506643 206 212 216
0.029947434352297308 -0.11706951593724353 -0.250900902821741 206 212 216
0.031929535229946626 -0.24837656884702836 0.6538357602519393 206 212 216
0.5933033790648263 -0.08085228337224604 0.10969335367005127 206 212 216
0.05659684591964256 0.02831101423484057 0.6958006994204833 206 212 216
0.36512699448936553 -0.08554607873411431 -0.2533274177290936 220 30 38
-0.4294938141188164 0.44150310687470823 -0.047574394976360304 206 212 216
-0.3410408488132441 0.10327661947357142 -0.06515945684182493 206 211 215
-0.6897614096892106 0.40989198343372396 -0.010683988554657856 206 212 216
-0.459195793062564 0.20866392147807733 -0.17886216943084307 206 212 216
0.22778234661317723 -0.30170941147037944 -0.007731997438362157 220 30 38
0.20057022766933416 0.04128337318578287 -0.10666066254700443 206 212 216
-0.0993274272238012 -0.31919101788034776 -0.3881103072116905 206 212 216
-0.7345921517746181 0.47277928065905117 -0.020826788084704513 206 212 216
0.05163879974648997 0.08522007178426241 0.29643079729432653 206 211 215
-0.5637251497892003 0.45232741376957786 -0.19315820761200436 206 212 216
0.487408206178904 -0.18556112531172358 -0.28156880874488194 220 30 38
0.6574027714485536 -0.18917693650859738 0.017256215247079026 220 30 38
0.03786466567208283 -0.16558857111268202 -0.22930486054141677 207 203 208
0.4241749323930333 -0.1109865169489615 0.15517554735653735 220 30 38
0.36269222430530773 -0.13163022216389084 -0.260236667097137 220 30 38
-0.6344102264175477 0.702848597202768 -0.12586381452626713 206 212 216
0.0011035820622245858 0.009751408758656283 0.6526703059168014 220 30 38
-0.001274454980654094 -0.1905978126812871 -0.25820002774883605 206 211 215
0.14433322638500556 0.11437255328436267 0.035210879559758844 206 211 215
-0.5210001887198051 0.2433329990870324 -0.14063338372392223 206 212 216
0.02975265862355517 -0.1907257098653316 0.4508870244484555 206 212 216
0.2769406120362407 0.04372558652997469 -0.13854511164316013 206 212 216
0.5621453421644522 0.0035167605049386307 -0.19765278854377932 220 30 38
0.5880116572894698 0.011467657875037512 0.004819195716716351 220 30 38
-0.22063714632772002 0.29056639922418775 -0.12802553472775108 206 212 216
0.17216876773230547 -0.0018153045813638902 0.6480562916947881 206 212 216
-0.051944582736327495 -0.28913656544348715 -0.2814790735890721 206 212 216
-0.16288640445837904 0.21951259187008232 -0.044795615192995554 206 212 216
-0.2943341323496356 0.03634169600443651 -0.1895256027385119 206 212 216
0.5546168874386336 -0.04642254918285555 0.11196043295807682 206 212 216
0.5222422552109696 -0.31139237420648114 0.11532833253302954 220 30 38
-0.24744782636463555 -0.5274752850503673 -0.23955246036219918 206 212 216
0.08220083249094792 0.08997721223868262 0.40850693724921366 206 212 216
0.24772955383446515 0.011076660067742413 0.39595015473908707 206 212 216
-0.015802942205293626 -0.006022489728823316 0.5701532421915775 209 176 181
0.6723934598718917 -0.10657226105162577 0.003443775720180397 220 30 38
0.05976197712317671 -0.0939915099267333 -0.33396934154452 206 212 216
-0.11458873673061029 -0.3584259936671266 -0.3909865111811537 207 202 206
0.10126365966744387 -0.22891499243408372 0.598212361466106 206 212 216
0.18170130263747053 -0.2051981040028213 0.6950183852922838 206 212 216
0.42419010183650957 0.008194726578616496 -0.19507589050915453 220 30 38
0.23123980252928192 -0.10479998427377031 0.14516924301533465 220 30 38
0.5778042013593802 -0.23966743073770944 0.1227570310315867 220 30 38
0.6351214517943696 -0.22158712305073539 0.04369569095546925 220 30 38
-0.004435610584861157 -0.0792633214211546 -0.1578408821645909 218 51 59
0.5637171230071663 -0.20183747622395545 0.1496419340527415 220 30 38
0.15897658223664446 0.10490516651954977 0.14744428700624634 206 212 216
0.10363691015858222 -0.21823440782048048 0.14208314043997014 206 212 216
0.684068149674725 -0.11846663211226821 -0.03652634624082561 220 30 38
-0.18445161611144148 0.07751644574922371 0.011851141742504418 220 35 43
-0.29004982255429923 0.05435073859963695 -0.06791826898839373 213 121 127
-0.5454663254687819 0.6152066457779841 -0.10137931202180459 206 212 216
0.446732401483861 -0.16040755051177105 -0.27840974978910477 220 30 38
-0.003784213932036785 -0.1895283520149846 -0.3784089563682707 206 212 216
-0.7891618553864849 0.5637021234265106 -0.0806714123446984 206 212 216
-0.3053462542401591 0.3383186747948295 -0.19187148713638474 206 212 216
0.29935920174278613 -0.32387691559482656 -0.0654252797319764 220 30 38
-0.41545945628823244 0.24526485304581908 -0.25528835887222784 206 212 216
0.181421353389347 0.08399835788739081 0.3755033244624772 206 212 216
-0.4156039683342378 0.4493504775428455 -0.13726947767632872 206 212 216
-0.19824330755006864 0.24860965572746307 -0.06283729518856339 206 212 216
0.21927510515381973 -0.00513634994290607 0.5232804963181328 220 30 38
-0.2588606719034551 0.3056058146417965 -0.10889341687132888 206 212 216
-0.024516859881405322 -0.0860168604752433 0.38912253426236326 206 211 215
-0.23024593078324693 -0.013350348867581886 -0.04734208865864414 206 212 216
-0.5350784455488972 0.24433851861192338 -0.09897971617107278 206 212 216
0.5258847693967525 -0.20717807400579763 -0.2683972912434269 220 30 38
-0.5607931258440374 0.5197014389829551 -0.18678808443745162 206 212 216
-0.03930957253868632 -0.20820794212660246 -0.36577236291584625 206 212 216
-0.20863120237117483 -0.5867869745743995 -0.22426529723610578 206 212 216
-0.3558567459085101 0.25927440034262295 -0.01696636961177497 207 202 206
0.012061426486304084 0.15014275665528545 -0.05119932572078567 206 212 216
0.016237969716501974 0.005895634810199752 0.6935096664189134 209 177 182
-0.44827793629918317 0.4813684341329365 -0.059427884535846257 206 212 216
0.050772673698022665 0.06527919013149679 0.49321847406075553 220 30 38
0.06854851962752292 -0.16502947728239542 -0.1875613684254285 206 212 216
0.03782953976772667 -0.18477060061048334 0.3998305222222857 206 212 216
-0.6642965930760066 0.37369849596517 -0.031783045295863795 206 212 216
0.45214947233438735 -0.14840963831360873 0.16544286149335038 220 30 38
-0.7598174759560427 0.5475372187497988 0.0011934448230300967 208 192 196
0.5209890028788153 0.00024382871375049547 0.07528718576244645 210 154 160
0.2950828790021681 -0.282215544110467 0.12309789647315934 220 30 38
0.26402783934472956 0.008434075586139145 0.05433979737886617 206 212 216
-0.6670666109411355 0.6888146864088288 -0.15440671685767432 206 212 216
0.13458571155741125 -0.18204884780175895 -0.3118739593320821 218 55 63
-0.6488980284180575 0.5094197749698476 -0.1748479889786686 206 212 216
0.06320171548693039 -0.179198586858909 -0.09902363007080238 219 42 50
0.029628930056222358 0.06740227146565841 0.24995318711111936 206 212 216
0.1444458647182448 0.10753922563980835 0.3547914908628978 206 212 216
-0.6480438307973927 0.39375083130406646 -0.12536729092501503 206 212 216
-0.5105548496898569 0.22235432931424026 -0.06460147315253931 206 212 216
0.47063175537226254 -0.1951162057650023 0.16677199084532918 220 30 38
-0.06337658379537177 -0.056952083839524964 0.12485486969654508 220 30 38
-0.11924502571798945 -0.46724642534365557 -0.2760178951229368 206 212 216
-0.5847068445099548 0.48439409735393957 -0.19012980256624726 206 212 216
-0.07827627790968406 -0.09908422588909738 -0.1361231714108048 206 212 216
-0.15712448954014233 -0.3117273536655655 -0.34620598621216586 206 212 216
-0.4221210473551201 0.37250052716474197 -0.007712831673547612 206 211 215
0.09883644440268124 -0.20910991306336282 -0.33846995747099823 215 94 101
0.47928262970555746 -0.3140106082295179 -0.18203656174353297 220 30 38
-0.2108639417942778 0.2596337283976211 -0.20055153806135614 206 212 216
-0.14657215973989934 -0.38187124773185666 -0.3810200974098784 206 212 216
-0.03491988875558681 -0.04506562905279883 0.5950272551751652 220 30 38
-0.3636406075706591 0.16837532502343935 -0.03112685138104614 220 30 38
0.2615100693569752 -0.3283952937773203 0.00535561873549617 220 30 38
0.22622522857240887 -0.12932321505288413 0.3097276042660654 206 212 216
0.16059317105237747 -0.1752076076085937 -0.17418463130161987 220 30 38
0.07745560556310858 -0.2065556350829591 0.10963187868079627 206 209 213
0.07073099723054176 -0.2005926132794999 -0.061029218226079374 220 30 38
-0.20988527427051093 -0.4679565579549599 -0.32633708490980534 206 212 216
-0.23998079447379664 0.12316939253275815 -0.26608429384138144 206 212 216
0.53455477689844 -0.0814028462532299 -0.2900291858626549 220 30 38
-0.07416439014820282 0.031616224370986906 -0.21313161118067084 206 212 216
0.08552547381991658 0.10243067712961165 0.17218904679463404 206 212 216
0.20312188303475573 -0.19484458629969142 0.10914416170144445 220 30 38
-0.6235067046292398 0.42494722394855455 0.027805331971438346 220 30 38
0.26043640654621264 0.035272239063439396 0.25217878884912887 206 212 216
0.17579515879643678 -0.17877591371135892 0.42661007360750963 206 212 216
0.1401659358820263 -0.14464947898416602 -0.3335151225110766 207 198 202
-0.05080704583965016 -0.07951119579002193 0.516356256321271 220 31 39
0.15694347447783652 -0.20097569388155234 0.19160854215809225 220 30 38
-0.23482158926114632 -0.5265014604235846 -0.2815376651919689 206 212 216
-0.12624345144603685 -0.019361483921251702 0.040580840198546096 220 30 38
-0.43563892884887745 0.29874079209913396 0.006280013216619202 209 169 174
-0.4031621338466813 0.32686401642851043 -0.00614503411360299 206 212 216
0.21653505364510622 -0.04810712854693985 0.6082785538164751 206 212 216
-0.5190180878421559 0.361460629397362 -0.2199746991253008 206 212 216
-0.044420084284814254 -0.143516077176452 0.027357505562013953 206 211 215
0.6775925556544694 -0.16376026574202596 -0.14582692135088438 220 30 38
-0.593012070109579 0.5569248094735353 -0.18559549497798125 206 212 216
0.04706072727070927 -0.21205579514451098 0.5262715887052802 206 212 216
0.2521735302180617 -0.08701445255030187 0.2538471594095379 220 30 38
-0.028240779440185538 -0.17229400157319183 -0.339048720913651 206 212 216
0.33842168098960235 -0.34980456414749495 -0.05489850552658791 220 30 38
0.2548469285630526 -0.26306517970833093 0.11161956751650416 220 30 38
0.1301016806904509 -0.011977593395713526 -0.18491742979532239 206 212 216
-0.4493507348390993 0.45211241894592713 -0.17088378722336994 206 212 216
-0.4762963156341594 0.42943335588774495 0.012117763710658251 206 212 216
-0.5415539799642668 0.2825436411791189 -0.02210562022619812 206 212 216
-0.15626555333104372 0.2561451736322678 -0.1330019466563895 206 212 216
0.05922314895411585 -0.08750167778934453 -0.24611369170235495 206 212 216
0.16450714079003495 -0.01635165324808128 0.6918812013296533 206 212 216
-0.01256676197769747 0.09547737230023451 0.05519234468925116 220 30 38
0.04475532576631806 -0.2010871550182939 -0.2471145620461412 207 204 208
0.02081443658566718 0.04657585119813002 0.4135767202317054 206 208 212
-0.04449832687355033 -0.18905757772446635 -0.290648719047303 206 212 216
-0.15352667901882788 -0.5414690221511709 -0.25245024242489184 206 212 216
0.0716090964104759 -0.2070422493719207 0.37895027501743184 206 212 216
-0.5695820450932112 0.3150975351013018 -0.017284074829847545 206 212 216
0.10966249474046515 -0.22052497888418426 -0.05863041586539188 220 30 38
0.3810157199269906 -0.007427523574753824 -0.20240663582825033 220 30 38
0.2313320857939665 0.032047417291923626 -0.14413220543088184 206 212 216
-0.28995242817064376 0.2680474646921319 -0.04071088490767897 206 212 216
0.46362058164923087 0.049489453508226526 -0.08967749454524966 220 30 38
0.36723203044430336 -0.18342160793025902 0.16602718309161874 220 30 38
-0.1255082400789657 -0.30799945548064755 -0.2819081393606412 206 208 212
0.031368351503346124 -0.04791528649617846 -0.15876687387039234 220 30 38
0.5274054688522005 -0.12181934734252313 -0.306078516665494 220 30 38
0.01666184613768734 -0.22839608719815435 -0.2671524730026358 206 212 216
-0.19077392126623438 0.20056199324323465 -0.017435743187473204 206 212 216
-0.1395410183800717 -0.006174138062932595 -0.23144063771628745 206 212 216
0.07180226839525522 0.09501451055832719 0.25243103672650336 206 207 211
-0.1900075663462501 0.26699385892549427 -0.10540338688504809 206 212 216
-0.018182598359019777 -0.3002483467033325 -0.303908421977533 207 199 204
-0.17162823584764597 0.24444266324891362 -0.18121842507887262 206 212 216
0.5292086954670897 -0.37323399311500316 0.030534628523541787 220 30 38
-0.5163542262789182 0.5507864002931445 -0.13653986916853758 206 212 216
-0.04534369924578811 0.1775796009204119 -0.10610746214981694 206 212 216
0.07757854809100782 -0.2205408188826276 0.5606537730968977 206 212 216
-0.024773891050877968 -0.09265042979511993 0.2818719760721976 220 31 39
-0.07960779145710116 -0.12651315760561288 -0.0005491637392555335 207 203 208
-0.1923353308587917 -0.48828844020899964 -0.17598232956333643 206 212 216
0.4253411913941316 0.049489453508226526 -0.07406175203470171 220 30 38
0.20681582133589904 -0.1577412004445447 0.5736336906924405 220 30 38
0.5394314102479846 -0.261915312050871 -0.21539717799471522 220 30 38
-0.7567680899904283 0.6147991867775748 -0.14448184769191183 206 208 212
0.6141533469876136 -0.295778039861364 -0.03449635283730899 220 30 38
-0.0015929590438974594 0.026458952591824875 0.32307063482686477 206 212 216
0.5310056635689533 -0.16458245553893144 -0.29394531627742837 220 30 38
0.2345675433123204 -0.0940950510642532 0.4845811896414591 206 212 216
0.36618149432929253 -0.2760606839815518 -0.17374878547427303 220 30 38
0.010166331978279354 0.09161367928388264 -0.15394850429687174 206 212 216
-0.7111150985032294 0.6164520898700777 0.03942653570238768 206 209 214
-0.1850750683173413 -0.5161004078239031 -0.15041298088138347 206 212 216
0.06183428999572356 0.05286592128553572 0.6236052945868447 206 212 216
-0.6279346920021782 0.35865118290017184 -0.012655707006234359 206 212 216
0.5437101469864839 0.0276404723063812 -0.1669946280194925 220 30 38
-0.06374219271522777 0.11777338455880722 -0.1842274138330289 206 212 216
-0.018410888797544517 -0.15948973957656737 0.062381554481334194 220 30 38
0.36636826623944213 -0.05056578538904535 0.11162516292517348 220 30 38
-0.20489209846769682 -0.5103128330022615 -0.30752310068157357 206 212 216
0.23590784858041633 0.05681731171565876 0.21845111080899535 206 212 216
-0.06867789450675682 0.1307372088351414 0.0043929122825972534 206 212 216
-0.023071193664115107 -0.0029572374547964277 0.24515399540965574 206 212 216
0.4452612038862012 -0.361203789969873 -0.1224256780438236 220 30 38
0.2914475472051431 -0.17140785573365336 0.1340157979402046 220 30 38
0.36687520579451544 -0.3814242110871712 0.02635728528401518 220 33 41
0.14507904742177727 0.10813790456498185 -0.013176980605054229 206 212 216
0.3948074262668393 -0.22264074371859452 0.166670588033093 220 30 38
0.08468392733629622 -0.22017417432787809 0.2873225746710754 206 212 216
-0.3244129333824101 0.18573757264927665 -0.03112685138104614 206 209 213
0.4256924429870825 0.03179162664913999 0.003403865126736589 220 30 38
0.489466124471492 0.03753905012947814 -0.17698565860866847 220 30 38
0.10249850154044773 -0.19547553382000046 -0.09997356058892672 206 207 211
-0.010286113264853031 -0.23503757651725266 -0.38870823362517876 206 212 216
0.06195722134770668 -0.22761348994674652 -0.2800180684269111 206 212 216
-0.20452248856987087 0.03912009580665328 0.001634897002130764 220 30 38
0.02430766660926284 -0.1813460167889845 0.16277263710853676 206 212 216
-0.5017187829758902 0.4051981880718557 -0.2167552604200481 206 212 216
-0.06760501401012249 0.07738062856595754 -0.19826217399659302 206 212 216
0.3731519579152149 -0.37115047452389616 0.07462779181031393 220 30 38
-0.1043772649213292 0.11456439906042942 -0.21256004502799752 206 212 216
-0.6655180163990592 0.5906035966059617 0.04624375885181721 206 212 216
-0.05143128408498354 -0.12806191606112563 0.07558332518771832 220 30 38
-0.7815702790864366 0.5841777130605952 -0.005223037797813427 220 30 38
-0.4161643436695725 0.4199178530787424 -0.179471957216637 206 212 216
-0.04203566905347489 -0.1217152027055329 0.4907853132086186 220 30 38
-0.10427987798828448 -0.12263362459081767 -0.034695123956063 206 211 215
0.09947737574138826 -0.21320503695066834 0.5170347983430176 206 212 216
0.06478309271628367 -0.20238864260440964 0.16189136396842535 206 212 216
0.19490180301472268 0.03490499100921956 0.5195988217222753 206 212 216
0.0915105717830125 0.04058846589753546 0.6675978727659099 206 212 216
0.1820469513711413 -0.23581226122004956 -0.09970214974071669 220 30 38
0.32831799716596566 0.03572718453143041 -0.0038180796221482963 220 30 38
0.11705477465370191 0.08421395621051185 0.5181579928140112 220 33 41
0.09189086585664641 0.07257537951795844 0.5863261339230076 206 212 216
-0.2726930585779701 -0.01131496774117046 -0.12899782452872044 206 212 216
0.0188762440197894 0.034617527820159956 0.6100028039574699 208 192 196
-0.3267550477712461 0.3655715783818894 -0.16445532576668576 206 212 216
-0.3195467010854652 0.1598738503367983 -0.2613514572792106 206 212 216
-0.43570914340453604 0.39407788331331833 -0.20855081178135756 206 212 216
0.5580869050844539 -0.3249305213614642 -0.09673338683397137 220 30 38
0.27725753121487967 -0.21838605755157928 -0.1825294047430772 220 30 38
-0.18954935378544752 -0.33713611188352594 -0.33253885408396955 206 212 216
-0.3284616846684403 0.05464611806261286 -0.17248081073528723 206 212 216
-0.05548969508784427 -0.08901816764972173 0.6077915818981977 220 30 38
-0.6345259791060783 0.6674694018837302 -0.16480577269367616 206 212 216
-0.6614627979829025 0.5876899905705598 -0.19021521636782515 207 205 209
-0.5824748203454834 0.48599100165608494 0.045664209369730875 206 212 216
0.4197836616298451 -0.02165265662177311 -0.22575990465272563 220 30 38
0.5569525644997861 -0.28556825934072194 -0.17223191563274787 220 30 38
0.520126877808318 -0.3407921265759784 -0.12001011553426577 220 30 38
-0.16032953366543615 -0.08105935074606434 -0.13565777646124424 206 212 216
-0.6016532884513487 0.6693848048939923 -0.13486829484550827 206 212 216
-0.08405733344692404 -0.3183292504391661 -0.27936813675042443 206 212 216
0.4168683866576364 -0.3708788550585853 0.0921162676833889 220 30 38
0.20528160647256005 -0.12502834029151166 0.6578509837896181 206 212 216
0.10514588235271795 0.12291420911475019 0.055383143654508284 206 212 216
-0.39197045223720917 0.10532844316657018 -0.1295973155704651 206 212 216
0.49748634930890767 -0.3893111892020276 -0.060514340045257534 220 30 38
0.555349669906602 0.010940846609781603 0.04490425452437636 220 30 38
-0.5431242110799459 0.3728044226757991 0.02110228198106148 206 212 216
0.5861077580221974 -0.32965659276907877 -0.01516866389944765 220 30 38
0.02397877988711507 0.04303920646572466 0.46224324534561484 206 212 216
0.3631384860864757 -0.1743689668631638 -0.2552316746256817 220 30 38
-0.5964142573951791 0.6595982786685385 -0.007348022297357164 206 212 216
-0.14889193719772256 -0.457475128166564 -0.33626195407556786 206 212 216
0.17443457296589365 -0.19688056999424683 0.5626973862168556 206 212 216
0.22591182608204138 -0.26064611541172306 -0.09889430236949487 220 30 38
0.27505030268296676 -0.2728918796269205 -0.12137435216407384 220 30 38
0.3070433444307273 0.03141646232100384 -0.173565500449952 206 212 216
0.08235522404680078 -0.17179886378553821 -0.14309685366056885 220 30 38
-0.2344607710839992 -0.441908894964415 -0.3107064188259357 206 212 216
0.55153239419519 -0.276603326863314 0.12083881169046291 220 30 38
-0.6925633161683271 0.561562606045046 -0.1770857799158565 206 212 216
0.5141454082926548 -0.07265411559841332 0.1338450001394918 206 212 216
0.1747404801418519 0.09895798471453392 0.2723262833884573 206 212 216
-0.027733875275513277 -0.08355029108452687 0.23676501004403902 207 202 206
0.3326829225695604 -0.35033990543072724 0.09337992851875349 220 30 38
-0.4190356898408301 0.13942199834854646 -0.1448602195079736 206 212 216
-0.32546025083357916 0.203986562163512 -0.27004211787388255 206 212 216
0.44579919758685865 -0.20207743059360112 -0.2641942229076513 220 30 38
0.04150077978323608 -0.26882050828666926 -0.34278621548520816 207 203 208
-0.0973062106397419 -0.27683474283304615 -0.2824099230930791 208 190 195
-0.7597137038495897 0.5138181983193507 -0.0253410013757919 211 143 148
-0.19899926141745322 -0.001472420140695199 -0.009235941867234693 206 211 215
0.47689098365649035 -0.0028451756125635595 0.07120241822407614 220 30 38
0.13385379336028927 -0.10427317393984074 -0.32716207613635084 206 212 216
0.025202524075414623 -0.191619768253481 0.21017544923280643 206 212 216
0.03972303798239934 -0.17082500935631245 -0.3794834238449937 206 212 216
-0.15651701144367927 -0.06715396298747217 -0.02103035739677815 206 212 216
-0.12108183968611601 0.03409863376014669 -0.2306810777533024 206 212 216
0.3397779305646921 0.049489453508226526 -0.08699770357623976 220 30 38
-0.2384217988791206 -0.028517653087298027 -0.16039372962773163 206 212 216
-0.36661495098485225 0.26860596247355895 -0.2675649388134656 206 212 216
0.5667266333040747 -0.34218923530039236 -0.05306568508582055 220 30 38
-0.5794893308176161 0.5944916829218919 -0.16375045328656723 206 212 216
-0.05499076493932159 -0.08202527772545767 0.1565557282933392 220 30 38
0.6507755425984209 -0.23368856893580686 -0.07918503785295153 220 30 38
0.6272050884707359 -0.27249234807634365 0.0006482289776214317 220 30 38
-0.7791674869236953 0.586341012791557 -0.11475750201470845 206 212 216
-0.26704773081666733 0.0028864134572892984 -0.17258522359426426 206 212 216
0.0183230436226019 0.12994668413390115 -0.011906942046892124 206 212 216
-0.035475495700044865 -0.2738413556577894 -0.38739504858019375 206 212 216
-0.6019302723563958 0.3331059890982534 -0.11645940777407968 206 212 216
0.23265512054635606 -0.30326545662320054 0.03942413660572787 220 30 38
0.6561558968391971 -0.17681178370682596 -0.18105637429517416 220 30 38
0.0787887209918358 -0.15670341977512892 -0.36838269929149353 206 212 216
0.193912183093161 -0.2806746982035652 0.029306080553964553 220 30 38
0.5716056508490577 -0.071935459488417 -0.2658592555944468 220 30 38
-0.6746422131317471 0.43642623091078747 -0.12288387570340469 206 212 216
-0.6218271581527136 0.5126927388626906 0.047031657212769945 219 44 52
0.15009600557408864 -0.1676160313085454 -0.2688840545446034 210 156 161
0.6664662904073363 -0.20540578232672066 -0.027839587903531242 220 30 38
-0.7229933389916094 0.5396423727899958 -0.1451228535367263 206 212 216
-0.2580815466366543 -0.016423518114019837 -0.08666402797403579 206 212 216
0.3746846677551834 0.045394329620921006 -0.12380029337439911 220 30 38
0.5126327554968111 -0.39161026886320194 -0.012236617602452496 220 30 38
0.006627606197160346 0.03440984949626058 0.36907964629789114 206 212 216
0.22483950438121292 0.037954410502582255 0.12315137695708521 206 212 216
0.2628814883755412 -0.0742424665994237 0.3844383352871342 206 212 216
0.4296103317459917 -0.3084227395782787 0.15398291319340252 220 30 38
-0.08372765882269001 -0.2761885662643748 -0.38159561238624645 206 212 216
0.6522259678933242 -0.09388797623982416 0.04147329670538538 220 30 38
0.06974034167408658 -0.02492558884952047 -0.15885866539476776 220 30 38
0.21833291582025918 0.003109927821495065 -0.18016852971638586 206 212 216
-0.1880150942184441 -0.363231876017039 -0.2642976075823456 206 212 216
-0.033271470930752195 0.03579113312345266 0.10426194039384126 220 30 38
-0.1808593935481856 -0.07168819606963073 -0.06148741961096584 206 212 216
0.12783428102616332 -0.21527270064211046 0.5601588737287878 206 212 216
-0.10632904181324736 0.18946605198183264 -0.17769757936655153 206 212 216
0.3739605876005649 -0.043621007783665566 -0.2334734325494441 220 30 38
0.32109686523214676 -0.2007442630105987 0.151330287151168 220 30 38
0.34875844971977804 -0.27563739988392066 0.14349364536250317 220 30 38
0.07810220681659236 -0.22185023391857575 -0.014576343139218462 220 30 38
0.026691299526474005 0.05969132893086836 0.20393459415467521 206 212 216
0.20082912149149298 0.06626886220733368 0.09457096825118894 220 30 38
0.4656066760542394 -0.398842517108252 -0.028964354453392065 220 30 38
-0.25878402002011297 0.018564086142842426 -0.21383272855297403 206 212 216
0.10875964463163693 -0.2191522187556842 0.1838405800992726 220 33 41
-0.17699099174584304 -0.40065438643160517 -0.3591275506243558 206 212 216
-0.45639707544484626 0.16014548470333068 -0.11578167786890431 206 212 216
0.15686269495614186 -0.25913754555056756 0.033244737890324796 220 30 38
0.24571632430512422 0.04783715391519389 -0.10164753400861586 206 212 216
0.05815347222010176 0.13084074252205055 -0.04565775516471442 206 212 216
-0.022365516518036147 0.11940984415339649 -0.15787120615032207 206 212 216
-0.5726019266402763 0.6302698137426471 -0.1363418915398279 206 212 216
0.00918525976989461 -0.1234314508905878 -0.13831043230592174 206 212 216
0.14305814376336926 0.013694883846189354 -0.15092147016349167 206 212 216
0.4624503291207733 -0.3708155248672549 0.09020364375093444 206 211 215
0.6221064865258834 -0.27076028969528837 -0.0769442964739087 220 30 38
0.026241072157737112 0.06618116106825714 0.3403667210292886 206 212 216
-0.21407300924937378 -0.3633354097039481 -0.30083662457479843 206 212 216
0.18074449520562877 -0.0953405175081791 -0.26393470323418994 206 212 216
0.5213601625036762 -0.31877625728140857 -0.15634491873681552 220 30 38
0.11656168578400312 0.11553031858921202 0.12981770661240655 206 212 216
0.45242249251451827 -0.38991775832397985 -0.0773673868556605 220 30 38
0.21793089576569355 0.02716969056525221 0.47977798951141476 206 212 216
-0.23393872169033555 -0.5909296333582565 -0.18805488197993975 206 212 216
0.6622418537199447 -0.06133405996580902 -0.07828778315279263 220 30 38
-0.001345502258479208 -0.02885261950781352 -0.1748080686062982 206 212 216
0.20457873075612112 -0.1597132429976886 0.6285705604018089 220 30 38
0.4111663150449016 -0.05673648924170929 -0.25362851181051077 220 30 38
-0.20574862067891414 0.1852990595032832 -0.23571399511382907 206 212 216
-0.07345313249467604 -0.2182021317747342 -0.2981041279853801 206 212 216
-0.22468437768915825 -0.5114382924589216 -0.17033937109625052 206 212 216
0.24157889585000997 -0.002421899198374728 0.44004894882492956 206 212 216
-0.1906829195065979 0.12226742159599781 0.008687607763648677 207 200 205
-0.04632237422016573 -0.07579123250554717 0.6860778312132327 220 30 38
0.18984677224150556 0.071904832001541 0.42036681943271864 206 212 216
0.12504018278710735 0.07085121133368187 -0.09133231244471401 206 212 216
-0.11548119323744957 0.13850418741334278 0.004651559768938337 206 212 216
-0.16430731043351174 -0.03138314121585758 0.0015478816684901201 206 211 215
0.06367908356795775 -0.21460214567508226 0.029555154471161794 220 30 38
0.29102846525197196 -0.3211630753347131 0.10003351762970128 220 30 38
0.17513722516401023 -0.003387822219631109 -0.18499917789641385 206 212 216
0.0411543338342156 -0.19774235233664994 -0.030972005337937845 220 30 38
-0.3851460206218841 0.16936560059874656 -0.2171579063259163 206 212 216
-0.607150170244173 0.6322333178958776 -0.16464850520207583 206 212 216
-0.25467694535317287 0.3106430831589981 -0.1482736125121338 206 212 216
-0.3807890822730078 0.41803410026292387 -0.10819493701522936 206 212 216
-0.3579322476424557 0.21436384731491767 -0.022171090605464988 220 30 38
-0.6478043979704992 0.6296632148182519 -0.18666780177758824 206 212 216
0.10051424743629318 -0.21714059855826412 -0.2987675005636503 206 212 216
-0.6194474926857241 0.5923679608352063 -0.18445604327434253 206 212 216
-0.19773480336673893 0.1437729017027195 -0.24524724527762562 206 212 216
0.6582114309363467 -0.08971307121266377 -0.1938181380081105 220 30 38
-0.6006761855558382 0.3143228503985049 -0.07964325786436485 206 212 216
0.056784437396974065 0.07236769374344831 0.44174288988141464 207 205 210
0.20033203164382427 -0.1550030115885174 0.450518249019033 206 212 216
-0.4010555183622656 0.15101306249638058 -0.18113795848282924 206 212 216
0.15401638283698663 -0.22734246653029522 0.6621137464186807 206 212 216
0.5199615934595563 -0.29446071227680487 -0.19116715110023985 220 30 38
-0.21023174257136365 -0.42226339277462527 -0.3407091044193417 206 212 216
-0.017799422761680332 -0.01307872102033392 0.34899044533702966 206 212 216
-0.5181695526856569 0.5203640665001508 -0.1692154166629609 206 212 216
0.17095835641193366 0.04595281250112653 0.5610050842947344 206 212 216
-0.32723638702780045 0.2893690264726193 -0.2524449077875986 206 212 216
-0.015954629189446144 0.15091745625930383 -0.1331472186646908 206 212 216
-0.6825849814198602 0.6556627468633857 -0.1798787456620793 206 212 216
-0.4413880287166332 0.17314098897655156 -0.15871099428980667 206 212 216
-0.45401988358062395 0.48343609782437863 -0.14004027040497508 206 212 216
0.007901641542323841 -0.27825622995581695 -0.3794379155145647 206 212 216
0.26552776649742116 0.004155633612427409 0.32560193512373165 206 212 216
-0.05065696073680776 -0.12560325921902013 0.5343333283457656 220 30 38
-0.15816381993659304 0.24208754009371727 -0.08475856407850704 206 212 216
-0.2852681695905288 0.18848368895513637 -0.029319571633911808 206 212 216
-0.12298570915094538 0.15644135396668854 -0.21253730576400454 206 212 216
-0.2677270178994884 0.2264257006544915 -0.03270823606101017 206 212 216
-0.6531208557735283 0.4012065978714593 0.004332237302670978 206 212 216
0.24634855333048136 -0.08250458296527867 0.42918610737128804 206 212 216
0.3999251017751983 -0.26910005520181257 0.16313428975408728 220 30 38
-0.23949467192514418 -0.4120377573543184 -0.2844653975853428 206 212 216
0.5611386752455066 -0.3058124330050744 -0.13419055748972214 220 30 38
0.6020443759856898 -0.10022615864611413 -0.25513365439072366 220 30 38
0.050661715477506364 -0.13144629638704575 -0.21384615455353606 206 212 216
0.2607381562813753 -0.29173104691946955 -0.08187520007211813 220 30 38
-0.281868366500367 0.18153098762522954 -0.26743592403780936 206 212 216
0.37477008155676134 -0.3397384910068978 -0.09628316877849791 220 30 38
-0.16497385697195924 -0.4431062677159835 -0.21701056304782798 206 212 216
-0.06014200544908574 -0.25096312287317835 -0.28090457189576534 211 152 157
-0.05925432478373384 0.10010783002016159 0.04128012099530068 208 185 189
-0.5765125436030987 0.33728149017427334 -0.1531374755148619 206 212 216
0.6148853545920645 -0.26192323950070345 0.04454264285718493 220 30 38
-0.2350546890689068 -0.49267893610867036 -0.20794407874596899 206 212 216
-0.16751952204634202 0.03901595116966306 0.025078455005174263 220 30 38
0.3246898477576986 -0.1608064562110454 -0.2381947802698465 220 30 38
-0.023103128844419826 0.002080056673879602 0.19366005292543975 206 212 216
-0.3854836524983935 0.35683079007812674 -0.03040362618401059 206 212 216
-0.2286382081943002 -0.42260689573240157 -0.24750227692807691 206 212 216
-0.20198241145354667 -0.46470737641161414 -0.20101876586115988 206 212 216
0.2010573336986049 -0.08697486745541497 0.6805378550878608 206 212 216
0.21442314822706174 -0.1510357699840349 0.13526271725322572 220 30 38
0.3113771262814089 -0.008345333112968003 0.05325973821877926 220 30 38
0.17375813201637713 0.024854765317676514 0.6051892325772689 206 212 216
-0.49482175260946826 0.5411509128487084 -0.09460599904679928 206 212 216
-0.14057318128898594 -0.4214734790234661 -0.3576467864424997 219 44 51
-0.6654141846877202 0.4451512239197713 0.02390820061406401 220 30 38
-0.22600951351377782 -0.5603800431337423 -0.25673124414905757 206 212 216
0.5131571592834702 0.015490915965078133 -0.20464074616373032 220 30 38
-0.04323706140954017 -0.061821285204851695 0.6437057310687092 220 30 38
-0.03288989162676482 -0.21646213104262502 0.6263273901236632 220 30 38
-0.7325406112048276 0.5058118912228062 0.009307048746988785 206 212 216
-0.018950529083176557 -0.311097002194116 -0.37645799904353444 206 208 212
-0.24497397027661075 0.2594339626223327 -0.050219052590403296 206 212 216
0.24726976174418466 -0.24437767704810212 -0.13921805080562663 220 30 38
-0.16796339963207169 0.07912124024814778 -0.2463771154958466 206 212 216
-0.567035545550425 0.6305493606577904 -0.01652333767036483 206 212 216
0.11978733084800619 -0.241806948119174 -0.01786442525258894 220 30 38
-0.28542865574597087 0.22581910173009634 -0.26002489093732806 206 212 216
-0.5847419517877841 0.5729782530135056 0.03245844141068219 206 212 216
-0.695708487185676 0.3971991527713981 -0.054114604418299746 206 212 216
-0.23384451616807883 0.06772200697515894 -0.010950611454138033 206 210 214
0.27611839243689223 -0.22188250996432204 0.12697190113478196 220 30 38
0.2350645437526602 -0.04944821612916396 0.5090281336171573 206 212 216
0.2974896646922686 -0.002605826605040912 -0.20222127953414226 206 212 216
-0.39238390152865726 0.28216056057706645 -0.002142521550686389 206 207 211
-0.5455892307436274 0.27371511448322594 -0.1363091684574369 206 212 216
0.4920860870362215 0.049489453508226526 -0.05373302883961774 220 30 38
-0.022069356603584726 -0.10738653829992033 0.3217359622204919 206 206 210
-0.35139755537777273 0.3922818390871871 -0.13747304326309698 206 212 216
0.173953710548427 0.09800789773358394 0.1882126878916252 206 212 216
0.21221441467177837 -0.1410896963800928 0.4878405040154177 206 212 216
-0.019876520788977996 -0.16014382869384963 -0.28877310229841774 206 212 216
-0.2931159574928678 0.3053901939668432 -0.2237900227766977 206 212 216
-0.024766716112730763 -0.025412205001134756 0.6387564393631817 220 30 38
0.5762403479664985 -0.25302285911478806 -0.193517580370667 220 30 38
0.0905925596813187 0.10739549590793122 0.29302616620840216 206 212 216
-0.07640992226995454 -0.3612360660156193 -0.3809306900809413 210 158 163
0.10846492827301729 0.08866840815281554 0.44312470995258035 208 192 196
-0.17270192846085147 -0.3543790007252322 -0.36482801290516975 206 212 216
0.13922861924789284 0.05435865487355326 0.5973422493408903 206 212 216
0.22818730220837627 -0.1092781887631283 0.22011471297852778 220 30 38
-0.048600621973697675 -0.17598168136130954 0.6011340141611122 220 30 38
-0.5505664771406693 0.5567889699384369 -0.1660925825766247 206 212 216
0.11025216587724823 -0.2455031663072052 0.6763868516199696 206 212 216
-0.12577725183051588 0.23222123272840856 -0.11420829514488014 206 212 216
-0.05204914833282479 0.15260141349739095 -0.15461587040250116 206 212 216
0.37672503240885674 -0.12896388699788597 0.15603846219177367 220 30 38
0.15412422297690626 -0.16408730285005635 -0.2182667211181726 220 30 38
0.11044614252798798 -0.21130486298876835 0.4097714251023709 206 212 216
0.6665413925636434 -0.2041846868305409 -0.11443021158591274 220 30 38
0.335805771557118 -0.024725826799537404 -0.21996200328459173 206 212 216
0.23774968426018483 -0.20955693480682677 -0.16480496802771574 220 30 38
-0.3219454401159613 0.11552240604060109 -0.23600233374965118 206 212 216
-0.19470776923335886 -0.03992480077155048 -0.03364220737091925 206 212 216
0.4570412453249653 -0.25900963346530154 -0.22948366029806946 220 30 38
-0.062487308699320496 -0.1368429227616885 0.6201886829188427 220 30 38
0.3557752263020898 0.04733409240301324 -0.04109563817184361 220 30 38
-0.22498851161975925 -0.5313310655181083 -0.13537599436287753 206 212 216
0.5867759287937873 -0.2980290183795701 0.05472057574219849 220 30 38
-0.36746592994167543 0.31041166718926594 -0.2500558545510706 206 212 216
-0.023140640806866994 -0.13036039967344032 0.25356454284276775 206 212 216
0.6135777426039165 -0.22442094794628242 0.08195991549239752 220 30 38
-0.16012596807866789 -0.04205640932970948 -0.21233846386444843 206 212 216
0.4263973005659795 -0.2321239704818508 -0.24019132043111915 220 30 38
-0.010625381481747279 0.0035009256287901634 0.39831700515559565 206 212 216
0.0034329347190127485 -0.181537870015662 0.25831108852870893 206 212 216
-0.32750383415109424 0.04928177518432716 -0.12386096369769367 206 212 216
0.2180630099954196 -0.0835582036331378 0.6361860382611264 206 212 216
-0.38619011940921144 0.41855302040007475 -0.14999787755435004 206 212 216
0.625677176824087 -0.018531374125124546 0.004368170201303428 220 30 38
0.4063471706078635 -0.3340227400728356 -0.1301784632085562 220 30 38
0.6781258405691362 -0.15757372561622404 -0.008560602676782042 220 30 38
-0.24063619489856997 0.18651225735207355 -0.018153389739713616 206 212 216
0.22094100211146153 0.03967065868763714 0.4352585339429233 206 212 216
0.2076017862633635 0.060082325806837124 0.003945084010520174 206 212 216
-0.4931461400554153 0.45091507599680164 -0.1929074647580003 206 211 215
0.29550595448269845 -0.35346910233863943 0.021520572306840968 214 113 119
-0.45829778585071984 0.4578355012809622 -0.016184070384796925 206 212 216
-0.47745780624438117 0.191812651638337 -0.13566655328070157 206 212 216
0.3968837326667453 0.025804852298626498 -0.16405141325699096 220 30 38
-0.725651597695567 0.5873946483606376 -0.16716146209528912 218 54 61
-0.12232555523651688 -0.43391841296509237 -0.25632077510190737 206 212 216
0.2343232675884428 -0.07999781007898353 0.5859269600017465 220 31 39
-0.573240473783545 0.30445657283563915 -0.12342670485043548 206 212 216
-0.46535682229717584 0.380882613264809 0.012331705204214933 219 37 44
-0.12130297381302041 0.026203767311164243 0.04988865723303853 218 54 61
0.008880325829964892 -0.2342793278617587 0.6151676269306217 206 212 216
0.21777285341057576 0.06817695616845532 0.34590914095498476 206 212 216
0.042340564197415304 0.14064370479480734 -0.08477531305146126 206 212 216
-0.2911762058866917 0.023577626327474656 -0.10113265210248865 206 212 216
-0.23289857172670295 -0.4617218868837468 -0.23235615386338176 206 212 216
-0.5808974962483753 0.3744963371661616 -0.17262855634635577 206 212 216
-0.06265176603028953 -0.18801186960521815 0.6448552112944105 220 30 38
0.08604642797380077 -0.2187849781520751 0.2440092835748312 206 212 216
0.6485674795981045 -0.2098760742674677 -0.15219790879628353 220 30 38
-0.6619337957917432 0.4921294108364757 0.043136105384873495 218 52 60
-0.46560668597911203 0.5073521410808485 -0.09566290543399686 206 212 216
0.1366692748521827 0.0909272992196326 -0.05327562839538633 206 212 216
-0.47126244459545746 0.23594911601210497 -0.006453165762531724 206 212 216
-0.5307629922006477 0.433017487087732 -0.2023350354589932 206 212 216
-0.6341404547037016 0.7190853853719452 -0.0416368766134804 206 212 216
0.6280712070685924 -0.022234890186380245 -0.07639588681943008 220 30 38
0.5117051246566459 -0.24662865556630825 -0.2438688822898455 220 30 38
-0.17704131317081315 -0.544478830472509 -0.12843184633410568 206 212 216
-0.34735512220965414 0.09118309358772161 -0.1951492492225474 206 212 216
-0.0869814075904223 0.15296866900222153 -0.1846776244378916 206 212 216
-0.5774425586387023 0.41308513638426914 -0.1882871622205183 206 212 216
-0.025322304430661958 -0.05249763189722128 0.3112418663938299 206 212 216
-0.16572025915636904 0.03314854677919671 -0.24161920017790894 206 212 216
0.051488722094258324 -0.13169356725644277 -0.35516337867150016 206 212 216
0.19381176376154316 -0.27950900544888346 -0.01977866596757501 220 30 38
-0.36287033362942306 0.3109622375208605 -0.023763630712366608 206 212 216
0.4898988261411045 -0.23881356094391723 0.16409057564317692 220 30 38
-0.09798872383701542 -0.08758937892842107 0.030700665383988707 220 30 38
-0.6132146097610898 0.38705332829338907 0.010105316495445531 207 201 205
-0.4799899410096515 0.521665598789931 -0.05427904312274192 206 212 216
0.48057578750886054 -0.31484072547625575 0.1430258811187258 220 30 38
0.5219380914779256 -0.11580821694548503 0.1518906624865027 206 212 216
0.26047631201736154 -0.13675461812314163 0.12848461353551155 220 30 38
-0.0017701870709303843 0.04119506109662526 0.17598639957291456 206 212 216
0.40116401913227956 -0.39217666429201836 0.00016208912667176729 220 30 38
0.24900280360585825 0.046240271964880765 0.303547382258175 206 212 216
-0.1048035516150905 -0.2588817511824785 -0.3499841909208324 206 212 216
-0.40788471836846735 0.3992187153198721 -0.03617910307645544 206 212 216
0.15712284048090583 -0.2618915595038167 -0.013160213005573152 220 30 38
0.601543933363186 -0.3052612666246202 0.015755466664552818 220 30 38
-0.12239660426057888 -0.3907082979264416 -0.2674013532039537 207 200 204
-0.0773558592607197 -0.3567335129303475 -0.3020918140657462 206 212 216
-0.41157667480715254 0.3233194628727995 -0.24505765703661453 206 212 216
0.1793963071913649 0.07267891320486758 -0.030995947875566122 206 212 216
0.192415683221412 -0.16246728675338076 0.32192109499627763 206 212 216
-0.03896552568632566 -0.07381127740379234 0.4714249309908093 206 212 216
0.14743090720946742 -0.2116325259481013 0.14822977509462315 220 30 38
0.2713615053032373 0.0017846767452405206 0.2807392448194507 206 212 216
0.5424616034403205 0.04338270197289021 -0.06932402787188234 220 30 38
-0.012417492716731628 -0.001177040212056117 0.5270075898370903 206 212 216
0.6711154119071789 -0.07547149699604666 -0.03712983826054022 220 30 38
0.27344421922838386 -0.08642369362435004 0.12854289221275705 220 30 38
0.17852914550800406 0.09499867055988384 0.3259236524956903 206 212 216
-0.17550940799680503 -0.486923607530332 -0.3239957751869298 206 212 216
0.2816416195893099 -0.021149596972245145 0.08269033611675983 206 212 216
-0.13693945882388175 0.06727497778108424 0.03608976850443193 206 212 216
0.16313397832855467 -0.20848748904174577 0.10497956831955481 206 211 215
-0.41134439456657396 0.13148754494202444 -0.06569030540677816 206 211 215
-0.6960756532831777 0.5215297592548326 0.039758628049808384 220 30 38
-0.0310323295703668 -0.1461501362967106 0.10838899759879882 220 30 38
0.011276728162666226 0.0293092172599802 0.5607815659723917 220 30 38
0.6186028517243827 -0.16857404573932783 0.0962696702479399 220 30 38
0.4970975764402462 -0.37695393404764566 0.06274636246053512 206 212 216
-0.636393936627118 0.3421507027155162 -0.05766691033449059 206 212 216
-0.504193458631097 0.3973349923064965 0.02931407319664099 206 212 216
-0.2166362279626712 -0.388257553632947 -0.2653257918651221 206 212 216
0.15494796250084664 -0.20038493495560053 0.523400957792654 206 212 216
-0.19462874805579997 -0.06876606653553684 -0.10594780301216752 206 211 215
0.47821373528567157 -0.22800509404749097 -0.2588983585927207 220 30 38
-0.31517852721558576 0.07495424776959832 -0.217067396306589 206 212 216
0.16178888976836062 -0.1833497393390151 0.28978681947123947 206 212 216
0.07759610172992247 0.07995926259288585 0.5390989773976563 220 30 38
0.21262105410500576 0.051828133165509195 -0.06330426966760182 206 212 216
0.5208213939395013 0.04579324649611144 -0.02272108351472687 220 30 38
0.4720128005799108 0.048978475722129565 -0.1332645657839207 220 30 38
0.13210558205513936 0.015004299813463845 0.6829964970287449 206 212 216
-0.07174882018803426 -0.1132935240599682 0.04329095142798179 220 30 38
0.17632704299628355 0.08834927614278534 0.015385080971883092 206 212 216
-0.5243489104227009 0.5627684724928635 -0.014257039765141135 206 212 216
0.1962133489253438 0.08777434976466614 0.2320759681718259 206 212 216
0.3191937706308348 -0.23118179604951172 -0.1965607525269202 220 31 39
0.2088322397266387 -0.029866655080785755 -0.2146467971841677 206 212 216
-0.010589448117451656 0.0014332658954850047 0.6087016292970054 220 30 38
0.11467226305340784 -0.17412169599376678 -0.18412490833040251 220 30 38
0.41068661492271114 -0.03702703100928658 0.10989212851411065 220 30 38
-0.6089949414645749 0.5182008263740749 -0.18956304950811506 206 212 216
0.14042609630801176 0.08369505842519322 0.4805690655578501 206 212 216
0.23409115126130062 -0.013573862533292895 0.48176885230729993 206 212 216
0.49016382946407405 -0.28034764619431335 -0.21618180181224564 220 30 38
-0.5933049685191769 0.6180002671779524 0.01653059281603635 206 212 216
0.09719121543924539 -0.036492300676135334 -0.18679966268654896 220 30 38
0.2240648047771945 -0.036787683864416616 0.5606537730968977 220 30 38
0.14020154980138624 -0.23623493436759965 0.06634815160798728 219 42 50
0.2090982861351125 0.07418748306602309 0.18789336961632638 206 212 216
0.15583227549014192 0.039183433448594464 -0.11339725146164882 206 212 216
-0.5795922684556657 0.6593431101517521 -0.05242308108500134 206 212 216
0.6295407655318884 -0.20181372367690117 -0.20041884268399202 220 30 38
0.1735388456409374 0.09242003653295551 0.06291400120229217 206 212 216
0.12172273129750737 -0.2353652394765856 0.6347970059987598 206 212 216
0.2457346677087778 0.0030222273809132815 0.10177534376144291 206 212 216
0.02939263579910506 -0.22010230573663417 0.5709035484960175 206 212 216
0.22197844005278305 -0.12240219371986401 0.6104258794380002 220 30 38
0.07159711582839832 0.04244053126585653 -0.14585726023783702 206 212 216
-0.6977600277554665 0.6592627031605947 0.03533061459973247 206 212 216
0.35478936148834345 -0.23407164953785933 0.1595987514373775 220 30 38
0.3266687895763921 -0.0751602775346274 0.11808956612809039 220 30 38
-0.2799677156993794 0.14619928249907874 -0.0268816591547724 206 212 216
0.013178198530835782 0.03185557524116224 0.5063228466581788 208 190 194
-0.02348948212724191 0.12083863287469715 0.01757631769915873 206 212 216
-0.12015904429232407 0.21651129214621465 -0.07424775653194458 206 212 216
0.08038046947134579 -0.21480983890020314 0.3361351019531391 206 212 216
-0.0010230012918186588 -0.17977350578641746 -0.027505116948630275 206 212 216
-0.36958696980849304 0.13090469856468356 -0.04991412144445261 206 207 211
-0.3001631027645752 0.023257885230016075 -0.14657889659213125 206 212 216
-0.18543508182852797 -0.3364418043694435 -0.29368332300119976 206 212 216
-0.45498101236669763 0.2573346189340039 -0.23219659158367204 206 212 216
0.422586372774922 0.04705454921317531 -0.1233333039941392 220 30 38
-0.47449463874630515 0.49567396439218664 -0.024031051758522815 206 212 216
0.4075158436068432 -0.391091378528494 0.0481627977601229 220 30 38
0.25447094094242917 0.01705551628168691 0.2013402020860217 206 212 216
-0.23827649706837634 -0.4856385261890762 -0.2981411128171171 206 212 216
0.5965962509895794 -0.01400505638555596 0.04420897098028634 208 190 194
0.24613381182759597 0.030674053663953225 0.3533569800725452 206 212 216
0.5309042756579386 -0.34443231617120906 0.07133495713861464 220 30 38
-0.05809284534942823 -0.2424854156348131 -0.3778389846462968 206 212 216
0.12086363117497237 -0.217403694524883 0.10203079540143767 220 30 38
0.2543703576973749 -0.05846856997459678 0.2210877925442361 220 30 38
0.296126202925978 -0.05434969726554235 0.10363768352198101 206 212 216
-0.02656919952919816 0.012242345371813445 0.14610000311201274 219 42 50
-0.6428072435415473 0.4372801007045797 -0.15060616031677354 206 212 216
-0.03105787026399983 -0.037282825377375595 0.49775264753802817 206 212 216
-0.010502451992416837 -0.16202817755852772 0.2248699907802618 206 212 216
0.09834639538216632 0.1019196993435147 0.37338389392758053 206 212 216
0.6302911910461003 -0.04900118693508925 0.043906431480384714 220 30 38
0.23558142242246702 -0.14766722965655812 -0.20937017034618005 220 30 38
0.46501515716599157 0.008043077778844046 -0.21273310781437677 220 30 38
-0.49294583783615326 0.2270085470318324 -0.1601989408604207 206 212 216
0.03915068206498707 -0.094909320861937 -0.2904538706751061 206 212 216
0.6624989295930819 -0.13664315698640006 -0.1906150906464963 220 30 38
0.6740035070513908 -0.19850121194222498 -0.06947569250420263 220 30 38
0.08906459588039457 0.07837091159187548 -0.11621434228546311 206 212 216
-0.12110020544160183 0.19580424183873338 -0.04102619102909173 206 212 216
-0.15383720557344788 -0.5100332860871182 -0.18165841344579353 206 211 215
-0.4800649239561867 0.24721253210182764 -0.1977181602024538 206 212 216
0.034614113216360036 0.09759314458525552 0.07328990799071006 220 30 38
0.20871025832752554 -0.12101299009345026 -0.23544984116048442 220 30 38
-0.01659723319026536 -0.12027058143639964 0.3623446816163891 220 30 38
-0.19281509058586813 0.27189472166118084 -0.15516827358433896 206 212 216
-0.2412556535771106 -0.563892320643707 -0.21668270637261566 206 212 216
0.07178471475634057 -0.07103348855165666 -0.29230448317433194 206 212 216
0.25795058477733174 -0.036723735272394364 0.12048755264690132 206 212 216
0.3493244577168358 0.004937629227017606 0.036429039515305205 220 30 38
0.3808273386849202 -0.30773576346516907 0.14186358584254363 220 30 38
0.014217548485139677 -0.19197909630847917 0.49445974581083213 220 30 38
-0.7072834580143015 0.5013574392805026 -0.135977884501282 206 212 216
-0.039974539547655924 -0.07705253894791643 0.19284185665589346 220 30 38
0.6397833883446933 -0.13137442779580183 0.07190093533322939 220 30 38
0.10541195111302398 0.11347849489621326 0.3316935246662024 206 212 216
0.332325293253812 -0.36404613836411204 -0.00427548076487446 220 31 38
0.4405977176088426 -0.3994009850872361 0.00848403845157504 220 30 38
0.03741045036394481 0.03866453938858121 0.6574279679139737 206 212 216
0.09941103550331694 -0.12146793928674664 -0.3529809159697028 206 212 216
-0.4877554741693684 0.28736531882381017 -0.22151024019735235 206 212 216
-0.5513671495737439 0.6293836679031086 -0.06028283094289106 206 212 216
0.16719707949087922 -0.1826396067277108 0.23868482381586217 220 30 38
-0.7274876069977331 0.464732770066928 -0.07253786371785498 206 212 216
-0.005718419955502947 0.054446356012629794 -0.17057165133682908 206 212 216
-0.15591431663931435 -0.3799235686758481 -0.25174171914550836 206 212 216
-0.17081319863705546 -0.06140592855705295 -0.17245932317389936 206 212 216
-0.4479969290643339 0.15447784981345813 -0.07201819106901888 206 212 216
-0.24652901704759206 0.20476856336606025 -0.24870854570887463 206 212 216
0.5854971059655572 -0.16301785708497535 0.12999094821344365 220 30 38
-0.0844804163780651 -0.07012359761567463 -0.1777548894644002 206 210 214
0.09335872558069257 0.10830599779399432 -0.07560081724563551 206 212 216
-0.23814800383547224 0.1437327131083623 -0.006279934406084397 206 212 216
0.40545473645285646 -0.1866707745723833 -0.26486453945513566 220 30 38
-0.04960643952301844 -0.22097992807748063 0.6748541715824441 215 93 99
-0.0758702819843225 -0.08580918215134394 0.08233987428854792 220 30 38
0.19228029072295827 -0.15260038333921247 -0.20557327950576568 220 30 38
-0.7565684732273548 0.5407282546023798 -0.11074140675557258 206 212 216
0.5971238734400801 -0.19110087791877312 -0.23986692083929242 220 30 38
-0.37963155538770227 0.11429277214450781 -0.1695945782437616 206 212 216
0.12271242572517649 -0.1960419441500384 -0.2728851517243101 206 212 216
-0.2819968746344926 0.05551642390370798 -0.2252197204725092 206 212 216
0.0453843584796657 -0.2145223645352274 0.3085078200773767 206 212 216
0.22978720165604102 -0.12363121666587623 0.2656679109854114 220 30 38
0.20738232107326593 -0.18152203001721864 -0.17303862306052573 220 30 38
-0.01124801970842323 0.0004917042758797092 0.48057150935817444 206 212 216
0.10125200691223907 0.11779713710586151 -0.03258371027832767 206 212 216
-0.19641606016613836 0.10551176544394494 -0.2584002405607692 206 212 216
0.20593803508161618 0.061662760533931195 0.04691190354626946 220 30 38
0.6602973039204489 -0.14327671885566595 0.03293183086557184 220 30 38
-0.14279076616983408 -0.5458838964491984 -0.20794109850167108 206 212 216
0.399877209249331 0.008610085089067923 0.03793617885919773 220 30 38
-0.23640617025311986 0.08361527728533835 -0.26278042481516917 206 212 216
-0.15755155854803182 -0.3123180976902958 -0.3062298832733845 206 212 216
-0.10129355399201376 -0.24677237784757464 -0.30909383843878335 206 212 216
-0.1337040758116353 0.08028631460213774 -0.23127369933194042 206 212 216
-0.26255906566982373 0.10560737913163241 -0.021736833620859486 206 212 216
0.03623858850356637 -0.09542821864725563 -0.15900794583164973 220 30 38
-0.5056327378123263 0.5559272024972552 -0.0516647206703462 206 212 216
0.26822351667464633 -0.022594218241378406 0.36469713745293886 206 212 216
-0.39928894875224064 0.19407947015498647 -0.018257173022082716 220 30 38
0.1293498693626404 0.11525077912467947 0.1803337713375946 206 212 216
0.2784701032123675 0.042919836505677524 -0.012828938362681687 206 212 216
-0.04374156461489993 -0.3442331464447802 -0.37233414560119715 210 154 159
0.06119886093305154 0.12438319388101882 -0.00040229211975209057 206 212 216
0.5532685653133763 -0.08682321772431617 0.1289109076798836 206 212 216
0.07621989196864758 -0.1970961757679786 -0.3749939540321896 206 212 216
-0.074456550947337 0.18343908903696193 -0.14297950654133892 206 212 216
-0.13559198606824938 0.2290999483691073 -0.16487361795511793 206 212 216
-0.6656456900647814 0.6835544956181441 0.02301652269604755 206 212 216
-0.5251823059381665 0.5924002666833955 -0.06623951227660647 206 212 216
0.04990335878815659 0.08475659909227402 -0.13888038912667422 206 212 216
-0.15549521978492176 -0.09323326872185007 -0.09176974525214947 206 212 216
-0.5791037468103534 0.3982771369363926 0.025224544718004782 206 212 216
0.18917980846885638 -0.2602788599068925 -0.06125513191977654 220 30 38
0.06977626106848704 -0.242062742487263 -0.32048737199455246 220 36 44
-0.02909013043856103 -0.07422663405159109 0.42894426054651325 206 212 216
-0.5824717208914135 0.3541565274622894 0.0017530299279626804 206 212 216
0.5180401703558123 -0.19852494958805778 0.1662203625270088 220 30 38
-0.03692674056213022 -0.05061390143323499 -0.18123654496420388 215 92 99
-0.5464641112597198 0.46221806973080043 0.041619388280868586 206 212 216
-0.055223872197692814 -0.007387327529785857 0.11379647206268592 220 30 38
-0.5189725497092839 0.5760197711341734 -0.10171777836671743 206 212 216
-0.36381784269905537 0.12841436172569134 -0.20743819717762144 220 30 38
-0.10645836206394411 -0.41785707177773274 -0.3345377039345731 206 212 216
-0.028649495731158013 -0.11846663211226821 0.4496625016713331 220 30 38
0.2274648760893431 -0.12050993230657497 0.44323882350674704 206 212 216
-0.09784345182871412 -0.3886485616848319 -0.30254043023990956 206 212 216
-0.15755555207539101 0.14572059565994955 0.0041302866357816395 206 212 216
0.5980682532531996 -0.045680140525804935 0.08063638154908806 212 137 143
0.2706789995565746 -0.012137159400728624 0.23365812026469665 220 30 38
0.009006451631304832 -0.15221730273716003 -0.2563759096214186 206 212 216
-0.5492030153743787 0.3456788053227027 -0.1895807670604661 206 212 216
0.5650798099099394 -0.3363382706825343 0.03693834091398459 220 30 38
0.17580591747835222 -0.18022054243110291 0.48144636007182384 206 212 216
-0.6280959828235807 0.6507770535711754 0.024661762835399524 206 212 216
0.13814255862085104 0.0945437288171982 0.4008579614439878 206 212 216
-0.14055881651147004 0.1989090752495102 -0.19900896361276155 206 212 216
0.2468538686524123 -0.185505096718923 0.12238342760640157 220 30 38
-0.7001389183589386 0.5703916989873555 0.042130269209025864 208 186 191
-0.24950493999126308 0.24678133545558553 -0.2348238557469314 206 212 216
0.4397108565106726 -0.3257691621068941 -0.1599139848018767 220 30 38
-0.17593649190591604 0.2144034398604153 -0.21201658257905343 206 212 216
0.09650382954254481 0.008114943576108948 -0.1581026966261617 206 212 216
-0.07223337810843031 -0.03540640023722454 -0.2008590247667923 220 32 40
0.038835364767658184 0.05583555591373818 0.5348362147685938 220 30 38
-0.10711613178293429 -0.3953941658384774 -0.3719661152328491 210 161 167
-0.15071119752693446 -0.5439435189917197 -0.16586346139500194 206 212 216
-0.2647893910950454 0.0628844744308028 -0.038529200794704455 219 37 45
0.45108457144186065 -0.3940128822112854 0.054922543172962 206 212 216
-0.02272155140308513 -0.16191612037292658 0.5127967717416275 220 30 38
-0.6652146275295326 0.37032143213900126 -0.07772342174070948 206 212 216
0.4274701885132246 -0.009789954382101266 0.07220667114514051 220 30 38
0.23383927591446335 0.0516764834344104 -0.024779817649191394 206 212 216
0.047777572882294624 0.059172434870855106 0.5786707803949842 220 30 38
0.4967926676461278 -0.15270452797620268 0.1653239050421996 216 88 95
0.643953584585863 -0.03653188949632761 -0.036207042866748286 220 30 38
-0.4848410336655631 0.5178414685166338 -0.13537200083551834 206 212 216
-0.42428750614503774 0.12897284460589686 -0.10496194564903195 206 212 216
-0.3202651187759177 0.06945409515865718 -0.084959715667394 206 212 216
-0.4088322274380996 0.15917955772393733 -0.03827057519453243 216 80 87
-0.6698605303655336 0.47684272454946997 -0.14745459667540559 206 212 216
-0.46379466764354405 0.41990992562890994 -0.1990742607653286 206 212 216
-0.5398082124594411 0.5982993026417787 -0.03034535123207047 206 212 216
-0.024652559717552276 -0.32669488559070875 -0.33707138842687834 220 30 38
0.4523378535764578 0.013638853390736092 0.03558366341776204 220 30 38
0.3256198329908592 -0.288466010476459 -0.1352833832713202 220 30 38
0.25329827441609026 -0.018339528349057787 -0.20444676206237983 206 212 216
-0.1639209515627316 0.16939726569441177 -0.22670394173775085 206 211 215
0.6582816454920053 -0.06021649070592763 -0.15695318659801752 220 30 38
-0.00233534860875804 0.01366321409389242 0.4401878878140978 206 212 216
-0.03299607400579373 -0.11572051580640848 -0.12748989542008898 206 212 216
-0.07815572702783388 -0.1224655313618052 -0.09973089419696997 206 212 216
-0.10394300607407102 0.21307086832627245 -0.14182360388917575 206 212 216
-0.07932520469277399 -0.2277334596809586 -0.34478828399965344 206 212 216
0.05066251641816142 -0.19779046838083958 0.07441467454057088 220 30 38
0.3823727741680408 -0.36667227003453823 -0.06182268964386918 220 30 38
-0.43753639078846635 0.47625990797457207 -0.10335822403805514 206 212 216
-0.5154530600081183 0.2706419461681143 -0.17938383139274802 206 212 216
-0.44796816970685915 0.18054132300000342 -0.037956047661942494 206 210 214
0.44415240399516637 0.03664499174132873 -0.16819521943490273 220 30 38
-0.03382705924868339 -0.04287859912661496 0.54590418643726 206 212 216
0.35367019034715197 0.032430497893976076 -0.16085274685449466 206 210 214
-0.5121361673143242 0.29781506861531937 0.0013770485937920549 206 212 216
0.06184706034254007 0.08456536426628834 0.2082995195582699 208 188 192
-0.22346700749835083 0.10318891833449488 0.0003856034472216112 206 212 216
-0.16455157125616787 -0.5190457236586347 -0.2907468882944759 206 212 216
-0.047505397095439814 -0.15809261595093194 -0.0175004144887377 206 212 216
-0.47194021175368656 0.37289213126548637 -0.22401209568055594 206 212 216
0.12507442579409025 -0.2095886148037135 0.22235305526091081 220 30 38
0.08836785946720932 0.08271330634857801 0.48359449035930935 220 30 38
0.10123364860736399 0.11237675818416448 0.2177829698398485 207 198 202
0.3744028558543737 0.031113166584111625 0.0037558848310889027 220 30 38
-0.5780109508311984 0.5282029434720391 0.04161619196885909 206 212 216
0.11087482086779836 -0.23924475759015934 0.02512236145429312 220 30 38
0.0015745627579436202 0.05417533632148387 0.13456022896854553 220 31 39
-0.2300926568190058 0.27770610863476275 -0.08546901706607339 206 212 216
0.6298241867646189 -0.24551107885581613 -0.12123305878191026 220 30 38
-0.5391855202158373 0.3314061769605014 0.004792835921564571 206 212 216
0.04766501650577357 -0.13866270463365252 -0.1634558859401625 206 211 215
0.2470470331865809 -0.10575799125394197 0.3461326592773275 206 212 216
-0.5660887815418671 0.2773394491787917 -0.0932593235065166 206 212 216
-0.1338254164582244 -0.5046293283115026 -0.26351124032190093 206 212 216
-0.7254599679872118 0.6371110241333694 -0.16787909002100268 206 212 216
0.18727689268220232 -0.1889698691347791 0.6024591499857318 207 205 210
0.11426554911407302 0.0428156918686873 -0.1294927387980517 206 212 216
-0.43671578052103877 0.21206475275252187 -0.008962125403080454 220 30 38
0.21173584704242113 0.07985572890597671 0.3007342700604984 206 212 216
-0.060356728325444274 -0.311344273063513 -0.38894930558643614 206 212 216
0.6461143809116145 -0.23388833471109532 0.0038373237318344747 220 30 38
-0.5093430823583295 0.24993489586063308 -0.022502365248356457 206 212 216
-0.05762107640237556 -0.1969280750883554 -0.32950565084489286 206 212 216
-0.3849328735496981 0.10757150913616538 -0.08664006680988065 206 212 216
-0.8082804205819624 0.5869555391657846 -0.046539840421397 220 30 38
0.2884947807596667 -0.08996033463145003 -0.23185708215325493 206 212 216
-0.3494026990545284 0.38499359205177935 -0.09570841376442583 206 212 216
0.5385892528142832 -0.2419585978502728 0.15380968649358692 220 30 38
-0.056245652680534226 -0.12941883619118236 0.5781119845891274 220 30 38
0.47895054108344215 0.03785879308958941 -0.0002825414509582705 220 30 38
0.15555241564934733 0.08377484701565882 0.440683562045725 206 212 216
-0.25178241288127756 0.28350953835606924 -0.21494215429531138 206 212 216
0.4058914018473852 -0.0976237720721315 -0.2689140059997973 220 30 38
-0.025427685869035807 -0.04553641079392782 0.26426773260937064 206 212 216
0.5105220868801502 0.049209906593083226 -0.09872346731572833 220 30 38
-0.12252272819926614 -0.44938111248033225 -0.3144953822165176 206 212 216
-0.20253161087276422 0.05635444997375144 -0.25539028322721613 206 212 216
0.6438912974800368 -0.25204110703817284 -0.03889401249921076 220 30 38
0.12041892657145002 -0.04190475959861068 -0.22419409919982888 206 212 216
0.021401172181816832 0.11602485287739531 0.03086830040044038 220 30 38
0.18530891816252507 -0.24159926979527463 0.07807631444413567 220 30 38
0.04407520048978825 0.07563270783462668 0.38532439171934374 206 212 216
0.6850971088210189 -0.15886668970364776 -0.05291241857219015 220 30 38
0.6034933111584443 -0.05217849988719108 -0.23242568296285185 220 30 38
-0.09941842153282693 0.06853628422345348 -0.21651897175088888 206 212 216
0.1801037426815796 -0.17867968162297962 0.14827370389557423 220 30 38
-0.001516335333177273 0.012856857776145895 -0.17750511518979295 206 212 216
0.2659939661129421 -0.3285311035099757 0.053090505046322845 220 30 38
0.6441778181668373 -0.03995646959252107 -0.11619598398058803 220 30 38
0.18710391930315204 0.020631744246326484 -0.14656612624531476 206 212 216
-0.048096118768337914 0.06796927784455595 0.07257623633930198 220 30 38
0.08061117018244646 0.11114773523815227 0.09139863975767534 206 212 216
0.15840127587737726 -0.19194743121281396 0.3393090025255199 206 212 216
0.623062072057563 -0.021756192171334947 -0.15240226414779073 220 30 38
0.5683550983933349 -0.12422197559182804 0.13202411557713753 206 212 216
-0.5435193318689618 0.4163976481189453 0.039713920660034464 206 212 216
0.030690623460823435 0.04612882200405531 -0.15628504562887066 206 212 216
-0.019807872724228487 -0.0077308211742987245 0.2964579473198804 206 212 216
-0.030689065032134335 -0.1212681735114582 0.20717794932041855 220 30 38
-0.558987395823938 0.5879537421909242 0.004985232577163272 206 212 216
-0.11920830910823929 -0.09391964878610012 -0.006802007082906641 206 208 212
-0.6827765515233294 0.523804520122536 -0.1634247572884709 206 212 216
0.2077859504597524 -0.22576202807789578 -0.13468867552167366 220 30 38
-0.014098645731199675 -0.2435633997998076 0.6607167867064817 207 204 208
0.44246409560040434 -0.2907809450372981 -0.1974046832059789 220 30 38
0.17428763202078554 -0.1388301943631947 -0.2522466321344591 220 33 41
0.2064849993176103 -0.14864106918456238 0.40506323516054377 206 212 216
-0.3253644657818446 0.351689958071573 -0.08112963235611174 206 212 216
0.29331550472618273 0.04940175236914999 -0.09455491020892248 206 212 216
-0.11352702469948235 -0.04154543154361252 -0.21265042093633144 206 212 216
0.5913707502425222 -0.3084227395782787 -0.06968564326437915 220 30 38
